<svg id="plus" xmlns="http://www.w3.org/2000/svg" width="51.943" height="51.943" viewBox="0 0 51.943 51.943">
  <path id="Path_1" data-name="Path 1" d="M25.972,0A25.972,25.972,0,1,0,51.943,25.972,26,26,0,0,0,25.972,0Zm0,49.946A23.974,23.974,0,1,1,49.946,25.972,24,24,0,0,1,25.972,49.946Z" fill="#545454"/>
  <path id="Path_2" data-name="Path 2" d="M36.107,26.166H25.665V14.1a.924.924,0,1,0-1.816,0V26.166H13.408a1.117,1.117,0,0,0,0,2.194H23.85V41.525a.924.924,0,1,0,1.816,0V28.36H36.107a1.117,1.117,0,0,0,0-2.194Z" transform="translate(1.214 -1.393)" fill="#545454"/>
</svg>
