<svg id="save_1_" data-name="save (1)" xmlns="http://www.w3.org/2000/svg" width="62.19" height="62.177" viewBox="0 0 62.19 62.177">
  <g id="Group_248" data-name="Group 248" transform="translate(0 0)">
    <path id="Path_404" data-name="Path 404" d="M60.616,62.2a1.573,1.573,0,0,0,1.574-1.574V14.586a1.566,1.566,0,0,0-.55-1.19L46.45.408a.268.268,0,0,0-.077-.051c-.038-.026-.064-.051-.1-.077S46.182.229,46.13.2s-.077-.038-.115-.051A.827.827,0,0,0,45.849.1a.374.374,0,0,0-.115-.026A2.284,2.284,0,0,0,45.439.05H1.574A1.573,1.573,0,0,0,0,1.624V60.653a1.573,1.573,0,0,0,1.574,1.574H60.616V62.2ZM49.2,59.066H12.988V35.508a.844.844,0,0,1,.845-.845H48.357a.844.844,0,0,1,.845.845ZM20.7,3.172H43.853V19.526a.175.175,0,0,1-.179.179H20.9a.183.183,0,0,1-.179-.179V3.172Zm-17.556,0H17.582V19.526A3.315,3.315,0,0,0,20.9,22.84H43.673a3.315,3.315,0,0,0,3.314-3.314V5L59.042,15.316v43.75H52.337V35.508a3.984,3.984,0,0,0-3.98-3.98H13.833a3.984,3.984,0,0,0-3.98,3.98V59.079H3.148Z" transform="translate(0 -0.05)" fill="#d9d9d9"/>
    <path id="Path_405" data-name="Path 405" d="M216.674,56.285h6.884v4.172a1.574,1.574,0,1,0,3.148,0V54.724a1.573,1.573,0,0,0-1.574-1.574h-8.458a1.568,1.568,0,1,0,0,3.135Z" transform="translate(-187.575 -46.355)" fill="#d9d9d9"/>
    <path id="Path_406" data-name="Path 406" d="M186.513,322.85H170.774a1.574,1.574,0,0,0,0,3.148h15.739a1.574,1.574,0,0,0,0-3.148Z" transform="translate(-147.549 -281.544)" fill="#d9d9d9"/>
    <path id="Path_407" data-name="Path 407" d="M186.513,387.75H170.774a1.574,1.574,0,0,0,0,3.148h15.739a1.574,1.574,0,0,0,0-3.148Z" transform="translate(-147.549 -338.139)" fill="#d9d9d9"/>
  </g>
</svg>
