<?xml version="1.0" encoding="iso-8859-1"?>
<!-- Generator: Adobe Illustrator 17.1.0, SVG Export Plug-In . SVG Version: 6.00 Build 0)  -->
<!DOCTYPE svg PUBLIC "-//W3C//DTD SVG 1.1//EN" "http://www.w3.org/Graphics/SVG/1.1/DTD/svg11.dtd">
<svg version="1.1" id="Capa_1" xmlns="http://www.w3.org/2000/svg" xmlns:xlink="http://www.w3.org/1999/xlink" x="0px" y="0px"
	 viewBox="0 0 465 465" style="enable-background:new 0 0 465 465;" xml:space="preserve">
<g>
	<path d="M365.992,256.389H154.148c-4.142,0-7.5,3.357-7.5,7.5s3.358,7.5,7.5,7.5h211.844c12.958,0,23.5,10.542,23.5,23.5v11.5
		H75.508v-11.5c0-12.958,10.542-23.5,23.5-23.5h25.14c4.142,0,7.5-3.357,7.5-7.5s-3.358-7.5-7.5-7.5h-25.14
		c-21.229,0-38.5,17.271-38.5,38.5V427.5c0,4.143,3.358,7.5,7.5,7.5s7.5-3.357,7.5-7.5V321.389h313.984V427.5
		c0,4.143,3.358,7.5,7.5,7.5s7.5-3.357,7.5-7.5V294.889C404.492,273.66,387.221,256.389,365.992,256.389z"/>
	<path d="M462.803,62.201l-60-60.004C401.397,0.79,399.489,0,397.5,0H7.5C3.358,0,0,3.357,0,7.5v450c0,4.143,3.358,7.5,7.5,7.5h450
		c4.142,0,7.5-3.357,7.5-7.5V67.504C465,65.515,464.21,63.607,462.803,62.201z M116.5,15H225v137.5c0,4.143,3.358,7.5,7.5,7.5H316
		c4.142,0,7.5-3.357,7.5-7.5V15h25v170h-232V15z M240,15h68.5v130H240V15z M450,450H15V15h86.5v177.5c0,4.143,3.358,7.5,7.5,7.5h247
		c4.142,0,7.5-3.357,7.5-7.5V15h30.893L450,70.61V450z"/>
</g>
<g>
</g>
<g>
</g>
<g>
</g>
<g>
</g>
<g>
</g>
<g>
</g>
<g>
</g>
<g>
</g>
<g>
</g>
<g>
</g>
<g>
</g>
<g>
</g>
<g>
</g>
<g>
</g>
<g>
</g>
</svg>
