<svg id="clip" xmlns="http://www.w3.org/2000/svg" width="20.04" height="40.08" viewBox="0 0 20.04 40.08">
  <path id="Path_315" data-name="Path 315" d="M21.535,10.02V30.06a8.081,8.081,0,0,1-7.515,7.515A8.081,8.081,0,0,1,6.5,30.06V7.515a5.388,5.388,0,0,1,5.01-5.01,5.388,5.388,0,0,1,5.01,5.01v20.04a2.694,2.694,0,0,1-2.5,2.5,2.694,2.694,0,0,1-2.5-2.5V10.02H9.01V27.555a5.388,5.388,0,0,0,5.01,5.01,5.388,5.388,0,0,0,5.01-5.01V7.515A8.081,8.081,0,0,0,11.515,0,8.081,8.081,0,0,0,4,7.515V30.06c0,5.01,5.01,10.02,10.02,10.02s10.02-5.01,10.02-10.02V10.02Z" transform="translate(-4)" fill="#474747"/>
</svg>
