<svg xmlns="http://www.w3.org/2000/svg" width="31.4" height="29.35" viewBox="0 0 31.4 29.35">
  <g id="Group_233" data-name="Group 233" transform="translate(-1100.999 -447)">
    <path id="folder_4_" data-name="folder (4)" d="M31.239,13.194a.666.666,0,0,0-.506-.232H29.326V5.5a.928.928,0,0,0-.927-.927H12.328l-1.3-2.17a.93.93,0,0,0-.795-.45H3a.928.928,0,0,0-.927.927v10.08H.666a.666.666,0,0,0-.659.766L2.585,30.74a.663.663,0,0,0,.658.565H28.156a.663.663,0,0,0,.659-.567l2.577-17.009A.664.664,0,0,0,31.239,13.194ZM3.121,3h7.041l1.3,2.17a.93.93,0,0,0,.795.45H28.278v7.337H27.23V9.293H4.17v3.669H3.121V3Zm23.06,9.958H5.218V10.341H26.182Zm1.646,17.3H3.572L1.11,14.01H30.289Z" transform="translate(1101 445.045)" fill="#545454"/>
    <path id="Path_378" data-name="Path 378" d="M25.405,32.95V25.5h-.847v7.45l-2.666-2.666-.6.6,3.689,3.689,3.689-3.689-.6-.6Z" transform="translate(1091.741 437.775)" fill="#545454"/>
  </g>
</svg>
