<svg id="picture" xmlns="http://www.w3.org/2000/svg" width="38.186" height="30.285" viewBox="0 0 38.186 30.285">
  <path id="Path_4" data-name="Path 4" d="M37.528,6H.658A.658.658,0,0,0,0,6.658V35.627a.658.658,0,0,0,.658.658H37.528a.658.658,0,0,0,.658-.658V6.658A.658.658,0,0,0,37.528,6Zm-.658,28.969H1.317V7.317H36.869Z" transform="translate(0 -6)" fill="#545454"/>
  <path id="Path_5" data-name="Path 5" d="M14.1,24.333a3.667,3.667,0,1,0-3.667-3.667A3.67,3.67,0,0,0,14.1,24.333Zm0-6.016a2.35,2.35,0,1,1-2.35,2.35A2.353,2.353,0,0,1,14.1,18.317Z" transform="translate(-3.563 -9.758)" fill="#545454"/>
  <path id="Path_6" data-name="Path 6" d="M6.658,38.143a.657.657,0,0,0,.435-.164l10.74-9.456,6.783,6.782a.658.658,0,1,0,.931-.931L22.382,31.21l6.045-6.619,7.414,6.8a.658.658,0,1,0,.889-.971l-7.9-7.242A.679.679,0,0,0,28.355,23a.66.66,0,0,0-.457.214L21.45,30.277l-3.123-3.123a.659.659,0,0,0-.9-.029L6.223,36.99a.658.658,0,0,0,.435,1.153Z" transform="translate(-2.05 -11.808)" fill="#545454"/>
</svg>
