<?xml version="1.0"?>
<svg xmlns="http://www.w3.org/2000/svg" id="Layer_1" enable-background="new 0 0 50 50" height="512px" viewBox="0 0 50 50" width="512px" class=""><g><g><path d="m45.8 7.7h-2.5v-4.6c0-.6-.4-1-1-1h-5.2c-.6 0-1 .4-1 1v4.7c-.6 0-1 .4-1 1v31c0 .1.1.3.1.4l3.7 7.2c.2.3.5.5.9.5.4 0 .7-.2.9-.6l3.5-7.2c0-.1.1-.3.1-.4v-30h1.5c.7 0 1.2.5 1.2 1.2v9.5c0 .6.4 1 1 1s1-.4 1-1v-9.4c0-1.8-1.4-3.3-3.2-3.3zm-3.5 2v29h-5.2v-29zm-4.2-5.6h3.2v3.7h-3.2zm1.6 40.6-2-4h4z" data-original="#000000" class="active-path" data-old_color="#000000" fill="#545454"/><path d="m2 47.9h28.4c.6 0 1-.4 1-1v-43.8c0-.6-.4-1-1-1h-19.1s0 0-.1 0-.2 0-.3.1h-.1c-.1 0-.2.1-.2.2l-9.3 7.9s0 .1-.1.1c-.1.1-.1.1-.1.2v.1c-.1 0-.1.2-.1.3v35.8c0 .6.4 1.1 1 1.1zm27.4-2h-26.4v-33.9h8.3c.6 0 1-.4 1-1v-6.9h17.1zm-19.1-40.7v4.8h-5.6z" data-original="#000000" class="active-path" data-old_color="#000000" fill="#545454"/><path d="m7.9 15.6c-.6 0-1 .4-1 1s.4 1 1 1h16.6c.6 0 1-.4 1-1s-.4-1-1-1z" data-original="#000000" class="active-path" data-old_color="#000000" fill="#545454"/><path d="m7.9 22.4h16.6c.6 0 1-.4 1-1s-.4-1-1-1h-16.6c-.6 0-1 .4-1 1 0 .5.5 1 1 1z" data-original="#000000" class="active-path" data-old_color="#000000" fill="#545454"/><path d="m7.9 27.2h16.6c.6 0 1-.4 1-1s-.4-1-1-1h-16.6c-.6 0-1 .4-1 1s.5 1 1 1z" data-original="#000000" class="active-path" data-old_color="#000000" fill="#545454"/><path d="m7.9 32h16.6c.6 0 1-.4 1-1s-.4-1-1-1h-16.6c-.6 0-1 .4-1 1 0 .5.5 1 1 1z" data-original="#000000" class="active-path" data-old_color="#000000" fill="#545454"/><path d="m24.5 34.8h-16.6c-.6 0-1 .4-1 1s.4 1 1 1h16.6c.6 0 1-.4 1-1s-.4-1-1-1z" data-original="#000000" class="active-path" data-old_color="#000000" fill="#545454"/></g></g> </svg>
