<svg xmlns="http://www.w3.org/2000/svg" width="28.957" height="28.957" viewBox="0 0 28.957 28.957">
  <g id="customer_1_" data-name="customer (1)" transform="translate(0.001)">
    <path id="Path_142" data-name="Path 142" d="M165.555,9.119A4.559,4.559,0,1,0,161,4.559,4.565,4.565,0,0,0,165.555,9.119Zm0-8.195a3.635,3.635,0,1,1-3.635,3.635A3.639,3.639,0,0,1,165.555.924Z" transform="translate(-151.078 0)" fill="#545454"/>
    <path id="Path_143" data-name="Path 143" d="M114.849,163.933a6.973,6.973,0,0,1,6.949,6.5H111.119a.462.462,0,1,0,0,.924h11.156a.462.462,0,0,0,.462-.462,7.889,7.889,0,0,0-15.777,0,.462.462,0,0,0,.462.462h1.848a.462.462,0,1,0,0-.924H107.9A6.973,6.973,0,0,1,114.849,163.933Z" transform="translate(-100.371 -152.966)" fill="#545454"/>
    <path id="Path_144" data-name="Path 144" d="M8.649,332.731l-2.535-.425-1.188-2.279a.462.462,0,0,0-.82,0l-1.188,2.279-2.535.425a.462.462,0,0,0-.253.779l1.8,1.834-.379,2.542a.462.462,0,0,0,.663.482l2.3-1.146,2.3,1.146a.462.462,0,0,0,.663-.482L7.1,335.345l1.8-1.834a.462.462,0,0,0-.253-.779Zm-2.368,2.13a.462.462,0,0,0-.127.392l.282,1.893-1.713-.853a.462.462,0,0,0-.412,0l-1.713.853.282-1.893a.462.462,0,0,0-.127-.392L1.412,333.5l1.887-.317a.462.462,0,0,0,.333-.242l.884-1.7.884,1.7a.462.462,0,0,0,.333.242l1.887.317Z" transform="translate(0 -309.46)" fill="#545454"/>
    <path id="Path_145" data-name="Path 145" d="M170.316,332.731l-2.535-.425-1.188-2.279a.462.462,0,0,0-.82,0l-1.188,2.279-2.535.425a.462.462,0,0,0-.253.779l1.8,1.834-.379,2.542a.462.462,0,0,0,.663.482l2.3-1.146,2.3,1.146a.462.462,0,0,0,.663-.482l-.379-2.542,1.8-1.834a.462.462,0,0,0-.253-.779Zm-2.368,2.13a.462.462,0,0,0-.127.392l.282,1.893-1.713-.853a.462.462,0,0,0-.412,0l-1.713.853.282-1.893a.462.462,0,0,0-.127-.392l-1.341-1.366,1.887-.317a.462.462,0,0,0,.333-.242l.884-1.7.884,1.7a.462.462,0,0,0,.333.242l1.887.317-1.341,1.366Z" transform="translate(-151.707 -309.46)" fill="#545454"/>
    <path id="Path_146" data-name="Path 146" d="M332.345,333.044a.462.462,0,0,0-.363-.313l-2.535-.425-1.188-2.279a.462.462,0,0,0-.82,0l-1.188,2.279-2.535.425a.462.462,0,0,0-.253.779l1.8,1.834-.379,2.542a.462.462,0,0,0,.663.482l2.3-1.146,2.3,1.146a.462.462,0,0,0,.663-.482l-.379-2.542,1.8-1.834A.462.462,0,0,0,332.345,333.044Zm-2.731,1.817a.462.462,0,0,0-.127.392l.282,1.893-1.713-.853a.462.462,0,0,0-.412,0l-1.713.853.282-1.893a.462.462,0,0,0-.127-.392l-1.341-1.366,1.887-.317a.462.462,0,0,0,.333-.242l.884-1.7.884,1.7a.462.462,0,0,0,.333.242l1.887.317Z" transform="translate(-303.412 -309.46)" fill="#545454"/>
    <path id="Path_147" data-name="Path 147" d="M209.194,85.354a2.1,2.1,0,0,0,1.581-.722.462.462,0,1,0-.7-.606,1.167,1.167,0,0,1-1.767,0,.462.462,0,1,0-.7.606A2.1,2.1,0,0,0,209.194,85.354Z" transform="translate(-194.717 -78.7)" fill="#545454"/>
  </g>
</svg>
