<?xml version="1.0" encoding="UTF-8"?>
<svg xmlns="http://www.w3.org/2000/svg" xmlns:xlink="http://www.w3.org/1999/xlink" width="25pt" height="25pt" viewBox="0 0 25 25" version="1.1">
<g id="surface1">
<path style=" stroke:none;fill-rule:nonzero;fill:rgb(0%,0%,0%);fill-opacity:1;" d="M 20.707031 25 L 4.292969 25 C 3.257812 25 2.414062 24.160156 2.414062 23.121094 L 2.414062 1.878906 C 2.414062 0.839844 3.257812 0 4.292969 0 L 16.210938 0 C 16.421875 0 16.589844 0.167969 16.589844 0.375 C 16.589844 0.582031 16.421875 0.75 16.210938 0.75 L 4.292969 0.75 C 3.671875 0.75 3.164062 1.257812 3.164062 1.878906 L 3.164062 23.121094 C 3.164062 23.742188 3.671875 24.25 4.292969 24.25 L 20.707031 24.25 C 21.328125 24.25 21.835938 23.742188 21.835938 23.121094 L 21.835938 6.535156 C 21.835938 6.328125 22.003906 6.160156 22.210938 6.160156 C 22.417969 6.160156 22.585938 6.328125 22.585938 6.535156 L 22.585938 23.125 C 22.585938 24.160156 21.742188 25 20.707031 25 Z M 20.707031 25 "/>
<path style=" stroke:none;fill-rule:nonzero;fill:rgb(0%,0%,0%);fill-opacity:1;" d="M 22.210938 6.910156 L 16.210938 6.910156 C 16.003906 6.910156 15.835938 6.742188 15.835938 6.535156 L 15.835938 0.539062 C 15.835938 0.332031 16.003906 0.164062 16.210938 0.164062 C 16.421875 0.164062 16.589844 0.332031 16.589844 0.539062 L 16.589844 6.160156 L 22.210938 6.160156 C 22.417969 6.160156 22.585938 6.328125 22.585938 6.535156 C 22.585938 6.742188 22.417969 6.910156 22.210938 6.910156 Z M 22.210938 6.910156 "/>
<path style=" stroke:none;fill-rule:nonzero;fill:rgb(0%,0%,0%);fill-opacity:1;" d="M 22.210938 6.910156 C 22.113281 6.910156 22.015625 6.875 21.941406 6.796875 L 15.945312 0.636719 C 15.800781 0.492188 15.804688 0.25 15.953125 0.105469 C 16.097656 -0.0390625 16.335938 -0.0351562 16.484375 0.113281 L 22.480469 6.273438 C 22.625 6.421875 22.621094 6.660156 22.472656 6.804688 C 22.398438 6.875 22.304688 6.910156 22.210938 6.910156 Z M 22.210938 6.910156 "/>
<path style=" stroke:none;fill-rule:nonzero;fill:rgb(0%,0%,0%);fill-opacity:1;" d="M 9.234375 20.195312 C 8.710938 20.195312 8.214844 19.992188 7.84375 19.621094 C 7.078125 18.851562 7.078125 17.605469 7.84375 16.835938 L 9.574219 15.109375 C 9.945312 14.734375 10.4375 14.53125 10.964844 14.53125 C 10.964844 14.53125 10.96875 14.53125 10.96875 14.53125 C 11.175781 14.53125 11.34375 14.699219 11.34375 14.90625 C 11.34375 15.113281 11.175781 15.28125 10.96875 15.28125 C 10.96875 15.28125 10.964844 15.28125 10.964844 15.28125 C 10.640625 15.28125 10.335938 15.40625 10.105469 15.636719 L 8.375 17.367188 C 7.902344 17.84375 7.902344 18.613281 8.375 19.089844 C 8.835938 19.546875 9.636719 19.546875 10.097656 19.089844 L 11.828125 17.359375 C 12.058594 17.128906 12.183594 16.824219 12.183594 16.496094 C 12.183594 16.289062 12.351562 16.121094 12.558594 16.121094 C 12.765625 16.121094 12.933594 16.289062 12.933594 16.496094 C 12.933594 17.023438 12.730469 17.515625 12.359375 17.890625 L 10.628906 19.621094 C 10.253906 19.992188 9.761719 20.195312 9.234375 20.195312 Z M 9.234375 20.195312 "/>
<path style=" stroke:none;fill-rule:nonzero;fill:rgb(0%,0%,0%);fill-opacity:1;" d="M 14.03125 15.398438 C 13.824219 15.398438 13.65625 15.230469 13.65625 15.023438 C 13.65625 14.816406 13.824219 14.644531 14.03125 14.644531 C 14.359375 14.644531 14.664062 14.519531 14.894531 14.289062 L 16.625 12.558594 C 16.855469 12.328125 16.980469 12.023438 16.980469 11.699219 C 16.980469 11.375 16.855469 11.070312 16.625 10.839844 C 16.164062 10.378906 15.363281 10.378906 14.902344 10.839844 L 13.171875 12.570312 C 12.945312 12.800781 12.816406 13.105469 12.816406 13.429688 C 12.816406 13.636719 12.648438 13.804688 12.441406 13.804688 C 12.234375 13.804688 12.066406 13.636719 12.066406 13.429688 C 12.066406 12.90625 12.269531 12.410156 12.640625 12.039062 L 14.375 10.308594 C 15.117188 9.5625 16.414062 9.5625 17.15625 10.308594 C 17.527344 10.679688 17.730469 11.171875 17.730469 11.699219 C 17.730469 12.226562 17.527344 12.71875 17.15625 13.089844 L 15.425781 14.820312 C 15.054688 15.191406 14.558594 15.398438 14.03125 15.398438 Z M 14.03125 15.398438 "/>
<path style=" stroke:none;fill-rule:nonzero;fill:rgb(0%,0%,0%);fill-opacity:1;" d="M 10.101562 17.738281 C 10.003906 17.738281 9.90625 17.703125 9.832031 17.628906 C 9.6875 17.484375 9.6875 17.246094 9.832031 17.101562 L 14.632812 12.296875 C 14.78125 12.152344 15.019531 12.152344 15.164062 12.296875 C 15.3125 12.445312 15.3125 12.683594 15.164062 12.828125 L 10.363281 17.628906 C 10.292969 17.703125 10.195312 17.738281 10.101562 17.738281 Z M 10.101562 17.738281 "/>
</g>
</svg>
