<svg id="font" xmlns="http://www.w3.org/2000/svg" width="49.255" height="29.957" viewBox="0 0 49.255 29.957">
  <g id="Group_16" data-name="Group 16" transform="translate(0 0)">
    <g id="Group_15" data-name="Group 15">
      <path id="Path_90" data-name="Path 90" d="M15.92,130.271a3.833,3.833,0,0,0-3.618-2.454h-.295a3.9,3.9,0,0,0-3.653,2.457L.362,148.32a3.39,3.39,0,0,0-.362,1.4,3.08,3.08,0,0,0,3.1,3.129A3.246,3.246,0,0,0,6.131,150.8l1.406-3.3h9.072l1.342,3.141a3.331,3.331,0,0,0,3.13,2.2,3.126,3.126,0,0,0,2.834-4.522ZM21.08,151.3a1.8,1.8,0,0,1-1.716-1.269l-1.539-3.6a.77.77,0,0,0-.708-.468H7.027a.77.77,0,0,0-.709.468l-1.6,3.763A1.7,1.7,0,0,1,3.1,151.3a1.555,1.555,0,0,1-1.555-1.588,2.085,2.085,0,0,1,.226-.762l0-.007L9.761,130.9a2.38,2.38,0,0,1,2.245-1.543H12.3a2.311,2.311,0,0,1,2.211,1.54l8,18.056a1.743,1.743,0,0,1,.193.7A1.62,1.62,0,0,1,21.08,151.3Z" transform="translate(0 -125.17)" fill="#545454"/>
      <path id="Path_91" data-name="Path 91" d="M89.1,191.966a.77.77,0,0,0-1.421,0l-3.178,7.567a.77.77,0,0,0,.71,1.069h6.355a.77.77,0,0,0,.71-1.069Zm-2.729,7.1,2.018-4.807,2.019,4.807Z" transform="translate(-76.322 -182.721)" fill="#545454"/>
      <path id="Path_92" data-name="Path 92" d="M318.587,290.289a8.527,8.527,0,0,0-3.5-.726,5.145,5.145,0,0,0-2.956.759,2.836,2.836,0,0,0-1.254,2.436v.065c0,1.734,1.4,2.9,3.489,2.9,2.749,0,4.668-1.583,4.668-3.85v-.884A.77.77,0,0,0,318.587,290.289Zm-1.093,1.584c0,1.381-1.257,2.309-3.128,2.309-1.808,0-1.949-1.04-1.949-1.359v-.065c0-1.439,1.672-1.654,2.669-1.654a7.226,7.226,0,0,1,2.407.4v.368Z" transform="translate(-280.97 -271.356)" fill="#545454"/>
      <path id="Path_93" data-name="Path 93" d="M447.841,101.842V100.3h-6.829v1.541h2.644v26.875h-2.644v1.541h6.829v-1.541H445.2V101.842Z" transform="translate(-398.586 -100.301)" fill="#545454"/>
      <path id="Path_94" data-name="Path 94" d="M278.512,193.7h0a8.359,8.359,0,0,0-2.125-6.146c-1.454-1.454-3.632-2.191-6.474-2.191a16.054,16.054,0,0,0-5.872.966,2.85,2.85,0,0,0-1.843,2.654,2.788,2.788,0,0,0,2.834,2.8,2.859,2.859,0,0,0,.957-.168,10.686,10.686,0,0,1,3.2-.455c1.116,0,2.551.19,2.912,1.669a13.273,13.273,0,0,0-3.436-.425,9.2,9.2,0,0,0-5.555,1.514,5.765,5.765,0,0,0-2.291,4.858v.066a5.747,5.747,0,0,0,2.051,4.581,7.4,7.4,0,0,0,4.747,1.562,7.752,7.752,0,0,0,4.928-1.591,3.252,3.252,0,0,0,5.964-1.7Zm-3.195,9.614c-.779,0-1.621-.494-1.621-1.293v-.033a.77.77,0,0,0-1.342-.516,6.016,6.016,0,0,1-4.735,1.973c-3.88,0-5.257-2.479-5.257-4.6v-.066c0-4.2,3.95-4.831,6.305-4.831a11.646,11.646,0,0,1,4.042.679.77.77,0,0,0,1.02-.729V193.6c0-2.53-1.654-3.981-4.538-3.981a12.2,12.2,0,0,0-3.668.526l-.015,0a1.35,1.35,0,0,1-.477.091,1.263,1.263,0,0,1-1.293-1.26,1.3,1.3,0,0,1,.843-1.211,14.591,14.591,0,0,1,5.331-.868c2.419,0,4.23.585,5.384,1.74a6.9,6.9,0,0,1,1.674,5.057v7.993h0A1.62,1.62,0,0,1,275.317,203.315Z" transform="translate(-235.73 -177.181)" fill="#545454"/>
    </g>
  </g>
</svg>
