<svg id="note" xmlns="http://www.w3.org/2000/svg" width="29.799" height="29.799" viewBox="0 0 29.799 29.799">
  <path id="Path_339" data-name="Path 339" d="M29.192,0H.606A.606.606,0,0,0,0,.606V29.192a.606.606,0,0,0,.606.606h24.3a.606.606,0,1,0,0-1.213H1.213V1.213H28.586v27.98a.606.606,0,1,0,1.213,0V.606A.606.606,0,0,0,29.192,0Z" transform="translate(0 0)" fill="#545454"/>
  <path id="Path_340" data-name="Path 340" d="M45.175,62.421a2.36,2.36,0,1,0,2.36,2.36A2.362,2.362,0,0,0,45.175,62.421Zm0,3.488A1.129,1.129,0,1,1,46.3,64.781,1.13,1.13,0,0,1,45.175,65.909Z" transform="translate(-38.422 -56.13)" fill="#545454"/>
  <path id="Path_341" data-name="Path 341" d="M115.794,79.421H101.431a.616.616,0,1,0,0,1.231h14.363a.616.616,0,1,0,0-1.231Z" transform="translate(-90.922 -71.399)" fill="#545454"/>
  <path id="Path_342" data-name="Path 342" d="M45.175,124.421a.616.616,0,0,0,0,1.231,1.129,1.129,0,1,1-1.129,1.129.616.616,0,1,0-1.231,0,2.36,2.36,0,1,0,2.36-2.36Z" transform="translate(-38.422 -111.881)" fill="#545454"/>
  <path id="Path_343" data-name="Path 343" d="M115.794,141.421H101.431a.616.616,0,0,0,0,1.231h14.363a.616.616,0,1,0,0-1.231Z" transform="translate(-90.922 -127.137)" fill="#545454"/>
  <path id="Path_344" data-name="Path 344" d="M45.175,186.421a2.36,2.36,0,1,0,2.36,2.36A2.362,2.362,0,0,0,45.175,186.421Zm0,3.488a1.129,1.129,0,1,1,1.129-1.129A1.13,1.13,0,0,1,45.175,189.909Z" transform="translate(-38.422 -167.633)" fill="#545454"/>
  <path id="Path_345" data-name="Path 345" d="M115.794,203.421H101.431a.616.616,0,0,0,0,1.231h14.363a.616.616,0,1,0,0-1.231Z" transform="translate(-90.922 -182.875)" fill="#545454"/>
</svg>
