<svg id="delete_1_" data-name="delete (1)" xmlns="http://www.w3.org/2000/svg" width="24.626" height="30.322" viewBox="0 0 24.626 30.322">
  <path id="Path_118" data-name="Path 118" d="M223.108,154.7a.71.71,0,0,0-.71.71v13.421a.71.71,0,1,0,1.42,0V155.413A.71.71,0,0,0,223.108,154.7Zm0,0" transform="translate(-206.605 -143.717)" fill="#545454"/>
  <path id="Path_119" data-name="Path 119" d="M105.108,154.7a.71.71,0,0,0-.71.71v13.421a.71.71,0,0,0,1.42,0V155.413A.71.71,0,0,0,105.108,154.7Zm0,0" transform="translate(-96.984 -143.717)" fill="#545454"/>
  <path id="Path_120" data-name="Path 120" d="M2.014,9.025v17.5a3.918,3.918,0,0,0,1.042,2.7,3.5,3.5,0,0,0,2.537,1.1H19.028a3.5,3.5,0,0,0,2.537-1.1,3.918,3.918,0,0,0,1.042-2.7V9.025a2.713,2.713,0,0,0-.7-5.334H18.275V2.8A2.789,2.789,0,0,0,15.463,0H9.157A2.789,2.789,0,0,0,6.345,2.8v.888H2.709a2.713,2.713,0,0,0-.7,5.334ZM19.028,28.9H5.592a2.249,2.249,0,0,1-2.159-2.379V9.088H21.186V26.521A2.249,2.249,0,0,1,19.028,28.9ZM7.765,2.8A1.368,1.368,0,0,1,9.157,1.419h6.306A1.368,1.368,0,0,1,16.855,2.8v.888H7.765ZM2.709,5.111h19.2a1.278,1.278,0,1,1,0,2.556H2.709a1.278,1.278,0,1,1,0-2.556Zm0,0" transform="translate(0.003 0.002)" fill="#545454"/>
  <path id="Path_121" data-name="Path 121" d="M164.108,154.7a.71.71,0,0,0-.71.71v13.421a.71.71,0,1,0,1.42,0V155.413A.71.71,0,0,0,164.108,154.7Zm0,0" transform="translate(-151.795 -143.717)" fill="#545454"/>
</svg>
