<svg id="video-camera_1_" data-name="video-camera (1)" xmlns="http://www.w3.org/2000/svg" width="31.88" height="30.286" viewBox="0 0 31.88 30.286">
  <path id="Path_76" data-name="Path 76" d="M137.611,261.635a1.077,1.077,0,0,1-.54-.144,1.052,1.052,0,0,1-.536-.922v-7.993a1.053,1.053,0,0,1,.535-.921,1.089,1.089,0,0,1,1.085,0l6.881,4a1.062,1.062,0,0,1,0,1.84l-6.881,4a1.083,1.083,0,0,1-.544.146Zm.01-9.059-.023,7.993v0l6.9-4Zm0,0" transform="translate(-128.034 -235.882)" fill="#545454"/>
  <path id="Path_77" data-name="Path 77" d="M22.745,198.827H1.7a1.7,1.7,0,0,1-1.7-1.7V181.394a1.7,1.7,0,0,1,1.7-1.7H22.745a1.7,1.7,0,0,1,1.7,1.7v15.736a1.7,1.7,0,0,1-1.7,1.7ZM1.7,180.762a.634.634,0,0,0-.633.633v15.736a.634.634,0,0,0,.633.633H22.745a.634.634,0,0,0,.633-.633V181.394a.634.634,0,0,0-.633-.633Zm0,0" transform="translate(0 -168.541)" fill="#545454"/>
  <path id="Path_78" data-name="Path 78" d="M382.743,213.8a1.212,1.212,0,0,1-.551-.133l-.03-.017-6.7-3.982v-8.738l6.7-3.982a1.213,1.213,0,0,1,1.214.03,1.232,1.232,0,0,1,.59,1.058v14.527a1.232,1.232,0,0,1-.59,1.059,1.213,1.213,0,0,1-.633.179Zm-.058-1.075a.141.141,0,0,0,.135-.011.17.17,0,0,0,.082-.152V198.031a.17.17,0,0,0-.082-.152.142.142,0,0,0-.145-.006l-6.148,3.657v7.53Zm0,0" transform="translate(-352.086 -184.573)" fill="#545454"/>
  <path id="Path_79" data-name="Path 79" d="M21.848,52.732A4.782,4.782,0,1,1,26.63,47.95,4.787,4.787,0,0,1,21.848,52.732Zm0-8.5a3.719,3.719,0,1,0,3.719,3.719A3.724,3.724,0,0,0,21.848,44.231Zm0,0" transform="translate(-16.004 -40.512)" fill="#545454"/>
  <path id="Path_80" data-name="Path 80" d="M159.711,12.721a6.11,6.11,0,1,1,6.11-6.11A6.117,6.117,0,0,1,159.711,12.721Zm0-11.158a5.048,5.048,0,1,0,5.048,5.048A5.054,5.054,0,0,0,159.711,1.563Zm0,0" transform="translate(-144.037 -0.5)" fill="#545454"/>
  <path id="Path_81" data-name="Path 81" d="M191.719,42.6a3.985,3.985,0,1,1,0-7.97.531.531,0,0,1,0,1.063,2.922,2.922,0,1,0,2.922,2.922.531.531,0,0,1,1.063,0A3.989,3.989,0,0,1,191.719,42.6Zm0,0" transform="translate(-176.045 -32.508)" fill="#545454"/>
  <path id="Path_82" data-name="Path 82" d="M53.856,82.614A2.66,2.66,0,0,1,51.2,79.957a.531.531,0,0,1,1.063,0,1.594,1.594,0,1,0,1.594-1.594.531.531,0,1,1,0-1.063,2.657,2.657,0,1,1,0,5.313Zm0,0" transform="translate(-48.011 -72.519)" fill="#545454"/>
</svg>
